<svg xmlns="http://www.w3.org/2000/svg" xmlns:xlink="http://www.w3.org/1999/xlink" width="794" zoomAndPan="magnify" viewBox="0 0 595.5 842.249979" height="1123" preserveAspectRatio="xMidYMid meet" version="1.0"><defs><g/><clipPath id="id1"><path d="M 310 771 L 329 771 L 329 775 L 310 775 Z M 310 771 " clip-rule="nonzero"/></clipPath><clipPath id="id2"><path d="M 310.148438 771.785156 L 328.816406 772.925781 L 328.710938 774.652344 L 310.042969 773.511719 Z M 310.148438 771.785156 " clip-rule="nonzero"/></clipPath><clipPath id="id3"><path d="M 310.148438 771.785156 L 328.816406 772.925781 L 328.710938 774.652344 L 310.042969 773.511719 Z M 310.148438 771.785156 " clip-rule="nonzero"/></clipPath></defs><g fill="rgb(55.288696%, 34.509277%, 17.248535%)" fill-opacity="1"><g transform="translate(292.35433, 795.383622)"><g><path d="M 21.269531 -23.425781 C 14.234375 -23.425781 12.109375 -13.570312 11.480469 -5.9375 L 3.914062 -23.425781 L 1.160156 -23.425781 L 1.160156 0 L 1.359375 0 L 1.359375 -22.828125 L 2.289062 -20.636719 L 11.25 0 L 11.578125 0 C 11.578125 -6.039062 12.109375 -19.839844 18.746094 -22.628906 L 18.746094 0 L 21.269531 0 Z M 21.269531 -23.425781 "/></g></g></g><g fill="rgb(55.288696%, 34.509277%, 17.248535%)" fill-opacity="1"><g transform="translate(283.796967, 795.506608)"><g><path d="M 15.15625 -4.898438 C 13.933594 -1.554688 12.246094 -0.265625 9.398438 -0.265625 L 3.804688 -0.265625 L 3.804688 -23.363281 L 1.160156 -23.363281 L 1.160156 0 L 14.363281 0 Z M 15.15625 -4.898438 "/></g></g></g><g clip-path="url(#id1)"><g clip-path="url(#id2)"><g clip-path="url(#id3)"><path fill="rgb(55.288696%, 34.509277%, 17.248535%)" d="M 328.691406 773.347656 C 325.855469 774.035156 323.546875 774.324219 321.765625 774.214844 C 320.828125 774.15625 319.75 773.964844 318.53125 773.636719 C 318.347656 773.59375 317.375 773.304688 315.605469 772.769531 C 314.570312 772.453125 313.808594 772.28125 313.316406 772.25 C 312.324219 772.191406 311.3125 772.519531 310.289062 773.230469 C 310.261719 773.25 310.234375 773.257812 310.207031 773.257812 C 310.109375 773.25 310.0625 773.203125 310.066406 773.113281 C 310.070312 773.078125 310.089844 773.050781 310.121094 773.027344 C 311.164062 772.269531 312.304688 771.929688 313.546875 772.003906 C 314.394531 772.054688 315.296875 772.199219 316.25 772.429688 C 317.09375 772.644531 317.933594 772.859375 318.769531 773.082031 C 319.835938 773.320312 320.914062 773.472656 322.007812 773.539062 C 324.527344 773.695312 326.734375 773.546875 328.628906 773.089844 C 328.75 773.066406 328.804688 773.117188 328.796875 773.238281 C 328.792969 773.296875 328.757812 773.332031 328.691406 773.347656 Z M 328.691406 773.347656 " fill-opacity="1" fill-rule="nonzero"/></g></g></g><g fill="rgb(55.288696%, 34.509277%, 17.248535%)" fill-opacity="1"><g transform="translate(328.989374, 773.547229)"><g><path d="M 1.613281 -1.859375 C 1.101562 -1.859375 0.664062 -1.402344 0.664062 -0.949219 C 0.664062 -0.417969 1.101562 0 1.613281 0 C 2.179688 0 2.578125 -0.417969 2.578125 -0.949219 C 2.578125 -1.402344 2.179688 -1.859375 1.613281 -1.859375 Z M 1.613281 -1.859375 "/></g></g></g><g fill="rgb(55.288696%, 34.509277%, 17.248535%)" fill-opacity="1"><g transform="translate(203.29111, 57.130219)"><g><path d="M 8.414062 -1.59375 C 7.921875 -0.394531 7.707031 -0.234375 5.5625 -0.234375 L 2.871094 -0.234375 L 2.871094 -11.050781 L 4.03125 -11.128906 L 4.03125 -11.285156 L 0.667969 -11.285156 L 0.667969 -11.128906 L 1.808594 -11.050781 L 1.808594 -0.234375 L 0.667969 -0.15625 L 0.667969 0 L 8.511719 0 L 9.261719 -3.183594 L 9.082031 -3.222656 Z M 8.414062 -1.59375 "/></g></g></g><g fill="rgb(55.288696%, 34.509277%, 17.248535%)" fill-opacity="1"><g transform="translate(215.400437, 57.130219)"><g><path d="M 9.21875 -1.59375 C 8.847656 -0.355469 8.375 -0.234375 6.230469 -0.234375 L 2.871094 -0.234375 L 2.871094 -5.917969 L 4.953125 -5.917969 C 6.152344 -5.917969 6.722656 -5.898438 6.820312 -4.246094 L 7 -4.246094 L 7 -7.824219 L 6.820312 -7.824219 C 6.722656 -6.171875 6.152344 -6.152344 4.953125 -6.152344 L 2.871094 -6.152344 L 2.871094 -11.050781 L 5.328125 -11.050781 C 7.472656 -11.050781 7.941406 -10.929688 8.316406 -9.691406 L 8.769531 -8.160156 L 8.945312 -8.199219 L 8.472656 -11.285156 L 0.667969 -11.285156 L 0.667969 -11.128906 L 1.808594 -11.050781 L 1.808594 -0.234375 L 0.667969 -0.15625 L 0.667969 0 L 9.378906 0 L 9.851562 -3.105469 L 9.671875 -3.125 Z M 9.21875 -1.59375 "/></g></g></g><g fill="rgb(55.288696%, 34.509277%, 17.248535%)" fill-opacity="1"><g transform="translate(228.45329, 57.130219)"><g><path d="M 8.414062 -1.59375 C 7.921875 -0.394531 7.707031 -0.234375 5.5625 -0.234375 L 2.871094 -0.234375 L 2.871094 -11.050781 L 4.03125 -11.128906 L 4.03125 -11.285156 L 0.667969 -11.285156 L 0.667969 -11.128906 L 1.808594 -11.050781 L 1.808594 -0.234375 L 0.667969 -0.15625 L 0.667969 0 L 8.511719 0 L 9.261719 -3.183594 L 9.082031 -3.222656 Z M 8.414062 -1.59375 "/></g></g></g><g fill="rgb(55.288696%, 34.509277%, 17.248535%)" fill-opacity="1"><g transform="translate(240.562615, 57.130219)"><g><path d="M 9.21875 -1.59375 C 8.847656 -0.355469 8.375 -0.234375 6.230469 -0.234375 L 2.871094 -0.234375 L 2.871094 -5.917969 L 4.953125 -5.917969 C 6.152344 -5.917969 6.722656 -5.898438 6.820312 -4.246094 L 7 -4.246094 L 7 -7.824219 L 6.820312 -7.824219 C 6.722656 -6.171875 6.152344 -6.152344 4.953125 -6.152344 L 2.871094 -6.152344 L 2.871094 -11.050781 L 5.328125 -11.050781 C 7.472656 -11.050781 7.941406 -10.929688 8.316406 -9.691406 L 8.769531 -8.160156 L 8.945312 -8.199219 L 8.472656 -11.285156 L 0.667969 -11.285156 L 0.667969 -11.128906 L 1.808594 -11.050781 L 1.808594 -0.234375 L 0.667969 -0.15625 L 0.667969 0 L 9.378906 0 L 9.851562 -3.105469 L 9.671875 -3.125 Z M 9.21875 -1.59375 "/></g></g></g><g fill="rgb(55.288696%, 34.509277%, 17.248535%)" fill-opacity="1"><g transform="translate(253.615471, 57.130219)"><g><path d="M 1.414062 -0.355469 C 2.28125 -0.0195312 3.222656 0.195312 4.167969 0.195312 C 6.113281 0.195312 8.238281 -0.964844 8.238281 -3.046875 C 8.238281 -4.835938 7.097656 -5.5625 5.152344 -6.332031 L 3.695312 -6.902344 C 2.417969 -7.410156 1.886719 -7.941406 1.886719 -9.140625 C 1.886719 -10.5 2.832031 -11.246094 4.382812 -11.246094 C 5.78125 -11.246094 6.605469 -10.617188 7.058594 -9.359375 L 7.589844 -7.921875 L 7.765625 -7.960938 L 7.15625 -10.929688 C 6.390625 -11.246094 5.445312 -11.480469 4.402344 -11.480469 C 2.417969 -11.480469 1.101562 -10.203125 1.101562 -8.769531 C 1.101562 -7.371094 1.886719 -6.429688 3.363281 -5.859375 L 4.777344 -5.308594 C 6.882812 -4.484375 7.371094 -3.753906 7.371094 -2.632812 C 7.371094 -1.296875 6.132812 -0.0390625 4.1875 -0.0390625 C 2.792969 -0.0390625 1.964844 -0.667969 1.515625 -1.925781 L 0.984375 -3.363281 L 0.804688 -3.324219 Z M 1.414062 -0.355469 "/></g></g></g><g fill="rgb(55.288696%, 34.509277%, 17.248535%)" fill-opacity="1"><g transform="translate(265.233382, 57.130219)"><g/></g></g><g fill="rgb(55.288696%, 34.509277%, 17.248535%)" fill-opacity="1"><g transform="translate(271.779837, 57.130219)"><g><path d="M 13.546875 -11.128906 L 13.546875 -11.285156 L 11.265625 -11.285156 L 7.273438 -1.554688 L 3.027344 -11.285156 L 0.667969 -11.285156 L 0.667969 -11.128906 L 1.808594 -11.050781 L 1.808594 -0.234375 L 0.667969 -0.15625 L 0.667969 0 L 3.222656 0 L 3.222656 -0.15625 L 2.105469 -0.234375 L 2.105469 -10.714844 L 6.46875 -0.726562 L 7.253906 -0.726562 L 11.363281 -10.753906 L 11.363281 -0.234375 L 10.222656 -0.15625 L 10.222656 0 L 13.546875 0 L 13.546875 -0.15625 L 12.425781 -0.234375 L 12.425781 -11.050781 Z M 13.546875 -11.128906 "/></g></g></g><g fill="rgb(55.288696%, 34.509277%, 17.248535%)" fill-opacity="1"><g transform="translate(288.606792, 57.130219)"><g><path d="M 9.59375 -0.234375 L 5.742188 -11.285156 L 4.972656 -11.285156 L 1.0625 -0.234375 L 0 -0.15625 L 0 0 L 2.515625 0 L 2.515625 -0.15625 L 1.375 -0.234375 L 2.890625 -4.523438 L 7 -4.523438 L 8.492188 -0.234375 L 7.550781 -0.15625 L 7.550781 0 L 10.519531 0 L 10.519531 -0.15625 Z M 3.203125 -5.40625 L 4.953125 -10.359375 L 6.683594 -5.40625 Z M 3.203125 -5.40625 "/></g></g></g><g fill="rgb(55.288696%, 34.509277%, 17.248535%)" fill-opacity="1"><g transform="translate(301.738271, 57.130219)"><g><path d="M 1.945312 -5.640625 C 1.945312 -9.359375 3.953125 -11.246094 6.863281 -11.246094 C 8.277344 -11.246094 9.378906 -10.851562 9.910156 -9.378906 L 10.441406 -7.921875 L 10.617188 -7.921875 L 10.007812 -10.929688 C 9.140625 -11.265625 7.882812 -11.480469 6.839844 -11.480469 C 3.480469 -11.480469 0.785156 -9.179688 0.785156 -5.640625 C 0.785156 -2.125 3.480469 0.195312 6.683594 0.195312 C 8.160156 0.195312 9.339844 -0.117188 10.222656 -0.453125 L 10.222656 -5.328125 L 11.363281 -5.40625 L 11.363281 -5.5625 L 8.019531 -5.5625 L 8.019531 -5.40625 L 9.160156 -5.328125 L 9.160156 -0.570312 C 8.570312 -0.214844 7.609375 -0.0390625 6.683594 -0.0390625 C 3.953125 -0.0390625 1.945312 -1.945312 1.945312 -5.640625 Z M 1.945312 -5.640625 "/></g></g></g><g fill="rgb(55.288696%, 34.509277%, 17.248535%)" fill-opacity="1"><g transform="translate(316.501266, 57.130219)"><g><path d="M 9.59375 -0.234375 L 5.742188 -11.285156 L 4.972656 -11.285156 L 1.0625 -0.234375 L 0 -0.15625 L 0 0 L 2.515625 0 L 2.515625 -0.15625 L 1.375 -0.234375 L 2.890625 -4.523438 L 7 -4.523438 L 8.492188 -0.234375 L 7.550781 -0.15625 L 7.550781 0 L 10.519531 0 L 10.519531 -0.15625 Z M 3.203125 -5.40625 L 4.953125 -10.359375 L 6.683594 -5.40625 Z M 3.203125 -5.40625 "/></g></g></g><g fill="rgb(55.288696%, 34.509277%, 17.248535%)" fill-opacity="1"><g transform="translate(329.632745, 57.130219)"><g><path d="M 8.414062 -1.59375 C 7.921875 -0.394531 7.707031 -0.234375 5.5625 -0.234375 L 2.871094 -0.234375 L 2.871094 -11.050781 L 4.03125 -11.128906 L 4.03125 -11.285156 L 0.667969 -11.285156 L 0.667969 -11.128906 L 1.808594 -11.050781 L 1.808594 -0.234375 L 0.667969 -0.15625 L 0.667969 0 L 8.511719 0 L 9.261719 -3.183594 L 9.082031 -3.222656 Z M 8.414062 -1.59375 "/></g></g></g><g fill="rgb(55.288696%, 34.509277%, 17.248535%)" fill-opacity="1"><g transform="translate(341.74207, 57.130219)"><g><path d="M 9.554688 -11.050781 L 9.554688 -6.171875 L 2.871094 -6.171875 L 2.871094 -11.050781 L 4.011719 -11.128906 L 4.011719 -11.285156 L 0.667969 -11.285156 L 0.667969 -11.128906 L 1.808594 -11.050781 L 1.808594 -0.234375 L 0.667969 -0.15625 L 0.667969 0 L 4.011719 0 L 4.011719 -0.15625 L 2.871094 -0.234375 L 2.871094 -5.898438 L 9.554688 -5.898438 L 9.554688 -0.234375 L 8.433594 -0.15625 L 8.433594 0 L 11.777344 0 L 11.777344 -0.15625 L 10.617188 -0.234375 L 10.617188 -11.050781 L 11.777344 -11.128906 L 11.777344 -11.285156 L 8.433594 -11.285156 L 8.433594 -11.128906 Z M 9.554688 -11.050781 "/></g></g></g><g fill="rgb(55.288696%, 34.509277%, 17.248535%)" fill-opacity="1"><g transform="translate(356.799913, 57.130219)"><g><path d="M 4.070312 -13.585938 C 4.992188 -13.585938 5.5625 -12.328125 6.625 -12.328125 C 7.667969 -12.328125 7.863281 -13.132812 7.863281 -14.332031 L 7.707031 -14.332031 C 7.667969 -13.527344 7.351562 -13.054688 6.78125 -13.054688 C 5.957031 -13.054688 5.09375 -14.3125 4.1875 -14.3125 C 3.144531 -14.3125 2.949219 -13.507812 2.949219 -12.308594 L 3.105469 -12.308594 C 3.144531 -13.113281 3.460938 -13.585938 4.070312 -13.585938 Z M 9.59375 -0.234375 L 5.742188 -11.285156 L 4.972656 -11.285156 L 1.0625 -0.234375 L 0 -0.15625 L 0 0 L 2.515625 0 L 2.515625 -0.15625 L 1.375 -0.234375 L 2.890625 -4.523438 L 7 -4.523438 L 8.492188 -0.234375 L 7.550781 -0.15625 L 7.550781 0 L 10.519531 0 L 10.519531 -0.15625 Z M 3.203125 -5.40625 L 4.953125 -10.359375 L 6.683594 -5.40625 Z M 3.203125 -5.40625 "/></g></g></g><g fill="rgb(55.288696%, 34.509277%, 17.248535%)" fill-opacity="1"><g transform="translate(369.931392, 57.130219)"><g><path d="M 9.21875 -1.59375 C 8.847656 -0.355469 8.375 -0.234375 6.230469 -0.234375 L 2.871094 -0.234375 L 2.871094 -5.917969 L 4.953125 -5.917969 C 6.152344 -5.917969 6.722656 -5.898438 6.820312 -4.246094 L 7 -4.246094 L 7 -7.824219 L 6.820312 -7.824219 C 6.722656 -6.171875 6.152344 -6.152344 4.953125 -6.152344 L 2.871094 -6.152344 L 2.871094 -11.050781 L 5.328125 -11.050781 C 7.472656 -11.050781 7.941406 -10.929688 8.316406 -9.691406 L 8.769531 -8.160156 L 8.945312 -8.199219 L 8.472656 -11.285156 L 0.667969 -11.285156 L 0.667969 -11.128906 L 1.808594 -11.050781 L 1.808594 -0.234375 L 0.667969 -0.15625 L 0.667969 0 L 9.378906 0 L 9.851562 -3.105469 L 9.671875 -3.125 Z M 9.21875 -1.59375 "/></g></g></g><g fill="rgb(55.288696%, 34.509277%, 17.248535%)" fill-opacity="1"><g transform="translate(382.984247, 57.130219)"><g><path d="M 1.414062 -0.355469 C 2.28125 -0.0195312 3.222656 0.195312 4.167969 0.195312 C 6.113281 0.195312 8.238281 -0.964844 8.238281 -3.046875 C 8.238281 -4.835938 7.097656 -5.5625 5.152344 -6.332031 L 3.695312 -6.902344 C 2.417969 -7.410156 1.886719 -7.941406 1.886719 -9.140625 C 1.886719 -10.5 2.832031 -11.246094 4.382812 -11.246094 C 5.78125 -11.246094 6.605469 -10.617188 7.058594 -9.359375 L 7.589844 -7.921875 L 7.765625 -7.960938 L 7.15625 -10.929688 C 6.390625 -11.246094 5.445312 -11.480469 4.402344 -11.480469 C 2.417969 -11.480469 1.101562 -10.203125 1.101562 -8.769531 C 1.101562 -7.371094 1.886719 -6.429688 3.363281 -5.859375 L 4.777344 -5.308594 C 6.882812 -4.484375 7.371094 -3.753906 7.371094 -2.632812 C 7.371094 -1.296875 6.132812 -0.0390625 4.1875 -0.0390625 C 2.792969 -0.0390625 1.964844 -0.667969 1.515625 -1.925781 L 0.984375 -3.363281 L 0.804688 -3.324219 Z M 1.414062 -0.355469 "/></g></g></g><g fill="rgb(55.288696%, 34.509277%, 17.248535%)" fill-opacity="1"><g transform="translate(255.057315, 76.6733)"><g><path d="M 0.128906 0 L 1.417969 0 L 1.417969 -0.109375 C 0.882812 -0.109375 0.855469 -0.222656 1.011719 -0.582031 L 1.625 -2.042969 L 3.277344 -2.042969 L 3.890625 -0.582031 C 4.042969 -0.222656 4.015625 -0.109375 3.480469 -0.109375 L 3.480469 0 L 5.007812 0 L 5.007812 -0.109375 C 4.695312 -0.109375 4.539062 -0.222656 4.386719 -0.582031 L 2.8125 -4.308594 L 1.78125 -4.308594 L 1.78125 -4.199219 C 2.1875 -4.199219 2.234375 -4.105469 2.117188 -3.808594 L 0.75 -0.582031 C 0.601562 -0.222656 0.445312 -0.109375 0.128906 -0.109375 Z M 1.730469 -2.277344 L 2.457031 -4.003906 L 3.171875 -2.277344 Z M 1.730469 -2.277344 "/></g></g></g><g fill="rgb(55.288696%, 34.509277%, 17.248535%)" fill-opacity="1"><g transform="translate(264.877974, 76.6733)"><g><path d="M 0.261719 0 L 1.964844 0 C 2.695312 0 4.0625 -0.253906 4.0625 -2.15625 C 4.0625 -4.046875 2.695312 -4.308594 1.964844 -4.308594 L 0.261719 -4.308594 L 0.261719 -4.199219 C 0.527344 -4.199219 0.585938 -4.066406 0.585938 -3.675781 L 0.585938 -0.632812 C 0.585938 -0.242188 0.527344 -0.109375 0.261719 -0.109375 Z M 1.042969 -0.242188 L 1.042969 -4.066406 L 1.875 -4.066406 C 2.964844 -4.066406 3.605469 -3.519531 3.605469 -2.15625 C 3.605469 -0.789062 2.964844 -0.242188 1.875 -0.242188 Z M 1.042969 -0.242188 "/></g></g></g><g fill="rgb(55.288696%, 34.509277%, 17.248535%)" fill-opacity="1"><g transform="translate(273.882707, 76.6733)"><g><path d="M 2.257812 0 L 2.75 0 L 4.324219 -3.730469 C 4.472656 -4.085938 4.628906 -4.199219 4.941406 -4.199219 L 4.941406 -4.308594 L 3.65625 -4.308594 L 3.65625 -4.199219 C 4.191406 -4.199219 4.21875 -4.085938 4.0625 -3.730469 L 2.617188 -0.308594 L 1.183594 -3.730469 C 1.03125 -4.085938 1.058594 -4.199219 1.59375 -4.199219 L 1.59375 -4.308594 L 0.0664062 -4.308594 L 0.0664062 -4.199219 C 0.378906 -4.199219 0.535156 -4.085938 0.6875 -3.730469 Z M 2.257812 0 "/></g></g></g><g fill="rgb(55.288696%, 34.509277%, 17.248535%)" fill-opacity="1"><g transform="translate(283.572817, 76.6733)"><g><path d="M 2.277344 0.0664062 C 3.558594 0.0664062 4.296875 -0.882812 4.296875 -2.15625 C 4.296875 -3.429688 3.558594 -4.375 2.277344 -4.375 C 0.992188 -4.375 0.261719 -3.429688 0.261719 -2.15625 C 0.261719 -0.882812 0.992188 0.0664062 2.277344 0.0664062 Z M 2.457031 -0.183594 C 1.441406 -0.105469 0.816406 -0.882812 0.726562 -2.03125 C 0.632812 -3.1875 1.125 -4.042969 2.101562 -4.125 C 3.113281 -4.207031 3.734375 -3.429688 3.832031 -2.277344 C 3.929688 -1.125 3.429688 -0.269531 2.457031 -0.183594 Z M 2.457031 -0.183594 "/></g></g></g><g fill="rgb(55.288696%, 34.509277%, 17.248535%)" fill-opacity="1"><g transform="translate(292.812534, 76.6733)"><g><path d="M 2.394531 0.0664062 C 3.054688 0.0664062 3.488281 -0.0703125 4.027344 -0.476562 L 4.027344 -1.390625 C 4.027344 -1.78125 4.105469 -1.898438 4.492188 -1.855469 L 4.5 -1.957031 L 2.632812 -2.1875 L 2.617188 -2.078125 C 3.394531 -1.972656 3.570312 -1.828125 3.570312 -1.429688 L 3.570312 -0.523438 C 3.199219 -0.308594 2.9375 -0.175781 2.394531 -0.175781 C 1.519531 -0.175781 0.71875 -0.816406 0.71875 -2.15625 C 0.71875 -3.441406 1.441406 -4.132812 2.394531 -4.132812 C 3.238281 -4.132812 3.667969 -3.589844 3.605469 -2.925781 L 4.0625 -2.792969 C 4.09375 -3.710938 3.585938 -4.375 2.394531 -4.375 C 1.0625 -4.375 0.261719 -3.441406 0.261719 -2.15625 C 0.261719 -0.816406 1.042969 0.0664062 2.394531 0.0664062 Z M 2.394531 0.0664062 "/></g></g></g><g fill="rgb(55.288696%, 34.509277%, 17.248535%)" fill-opacity="1"><g transform="translate(302.124055, 76.6733)"><g><path d="M 0.128906 0 L 1.417969 0 L 1.417969 -0.109375 C 0.882812 -0.109375 0.855469 -0.222656 1.011719 -0.582031 L 1.625 -2.042969 L 3.277344 -2.042969 L 3.890625 -0.582031 C 4.042969 -0.222656 4.015625 -0.109375 3.480469 -0.109375 L 3.480469 0 L 5.007812 0 L 5.007812 -0.109375 C 4.695312 -0.109375 4.539062 -0.222656 4.386719 -0.582031 L 2.8125 -4.308594 L 1.78125 -4.308594 L 1.78125 -4.199219 C 2.1875 -4.199219 2.234375 -4.105469 2.117188 -3.808594 L 0.75 -0.582031 C 0.601562 -0.222656 0.445312 -0.109375 0.128906 -0.109375 Z M 1.730469 -2.277344 L 2.457031 -4.003906 L 3.171875 -2.277344 Z M 1.730469 -2.277344 "/></g></g></g><g fill="rgb(55.288696%, 34.509277%, 17.248535%)" fill-opacity="1"><g transform="translate(311.944714, 76.6733)"><g><path d="M 0.261719 0 L 1.964844 0 C 2.695312 0 4.0625 -0.253906 4.0625 -2.15625 C 4.0625 -4.046875 2.695312 -4.308594 1.964844 -4.308594 L 0.261719 -4.308594 L 0.261719 -4.199219 C 0.527344 -4.199219 0.585938 -4.066406 0.585938 -3.675781 L 0.585938 -0.632812 C 0.585938 -0.242188 0.527344 -0.109375 0.261719 -0.109375 Z M 1.042969 -0.242188 L 1.042969 -4.066406 L 1.875 -4.066406 C 2.964844 -4.066406 3.605469 -3.519531 3.605469 -2.15625 C 3.605469 -0.789062 2.964844 -0.242188 1.875 -0.242188 Z M 1.042969 -0.242188 "/></g></g></g><g fill="rgb(55.288696%, 34.509277%, 17.248535%)" fill-opacity="1"><g transform="translate(320.949443, 76.6733)"><g><path d="M 2.277344 0.0664062 C 3.558594 0.0664062 4.296875 -0.882812 4.296875 -2.15625 C 4.296875 -3.429688 3.558594 -4.375 2.277344 -4.375 C 0.992188 -4.375 0.261719 -3.429688 0.261719 -2.15625 C 0.261719 -0.882812 0.992188 0.0664062 2.277344 0.0664062 Z M 2.457031 -0.183594 C 1.441406 -0.105469 0.816406 -0.882812 0.726562 -2.03125 C 0.632812 -3.1875 1.125 -4.042969 2.101562 -4.125 C 3.113281 -4.207031 3.734375 -3.429688 3.832031 -2.277344 C 3.929688 -1.125 3.429688 -0.269531 2.457031 -0.183594 Z M 2.457031 -0.183594 "/></g></g></g><g fill="rgb(55.288696%, 34.509277%, 17.248535%)" fill-opacity="1"><g transform="translate(330.189164, 76.6733)"><g><path d="M 2.078125 0.0664062 C 2.925781 0.0664062 3.644531 -0.234375 3.644531 -1.070312 C 3.644531 -1.925781 2.9375 -2.109375 2.011719 -2.449219 C 1.527344 -2.625 0.875 -2.808594 0.875 -3.375 C 0.875 -3.871094 1.304688 -4.132812 1.957031 -4.132812 C 2.734375 -4.132812 3.273438 -3.742188 2.957031 -2.964844 L 3.414062 -2.835938 C 3.753906 -3.945312 2.859375 -4.375 1.957031 -4.375 C 1.089844 -4.375 0.417969 -4.042969 0.417969 -3.316406 C 0.417969 -2.535156 1.167969 -2.324219 1.953125 -2.019531 C 2.625 -1.757812 3.1875 -1.664062 3.1875 -1.011719 C 3.1875 -0.445312 2.78125 -0.175781 2.089844 -0.175781 C 1.265625 -0.175781 0.445312 -0.507812 0.785156 -1.601562 L 0.328125 -1.730469 C -0.0117188 -0.3125 1.078125 0.0664062 2.078125 0.0664062 Z M 2.078125 0.0664062 "/></g></g></g><g fill="rgb(55.288696%, 34.509277%, 17.248535%)" fill-opacity="1"><g transform="translate(338.709447, 76.6733)"><g/></g></g></svg>