<svg xmlns="http://www.w3.org/2000/svg" xmlns:xlink="http://www.w3.org/1999/xlink" width="1080" zoomAndPan="magnify" viewBox="0 0 810 809.999993" height="1080" preserveAspectRatio="xMidYMid meet" version="1.0"><defs><g/></defs><rect x="-81" width="972" fill="rgb(90.979004%, 90.19928%, 87.838745%)" y="-80.999999" height="971.999992" fill-opacity="1"/><rect x="-81" width="972" fill="rgb(100%, 100%, 100%)" y="-80.999999" height="971.999992" fill-opacity="1"/><rect x="-81" width="972" fill="rgb(90.979004%, 90.19928%, 87.838745%)" y="-80.999999" height="971.999992" fill-opacity="1"/><g fill="rgb(28.62854%, 27.449036%, 20.779419%)" fill-opacity="1"><g transform="translate(98.131054, 397.172813)"><g><path d="M 27.367188 -5.179688 C 25.765625 -1.277344 25.0625 -0.765625 18.09375 -0.765625 L 9.335938 -0.765625 L 9.335938 -35.933594 L 13.105469 -36.1875 L 13.105469 -36.699219 L 2.175781 -36.699219 L 2.175781 -36.1875 L 5.882812 -35.933594 L 5.882812 -0.765625 L 2.175781 -0.511719 L 2.175781 0 L 27.683594 0 L 30.113281 -10.359375 L 29.539062 -10.484375 Z M 27.367188 -5.179688 "/></g></g></g><g fill="rgb(28.62854%, 27.449036%, 20.779419%)" fill-opacity="1"><g transform="translate(137.517128, 397.172813)"><g><path d="M 29.988281 -5.179688 C 28.773438 -1.152344 27.238281 -0.765625 20.269531 -0.765625 L 9.335938 -0.765625 L 9.335938 -19.246094 L 16.113281 -19.246094 C 20.011719 -19.246094 21.867188 -19.179688 22.1875 -13.808594 L 22.761719 -13.808594 L 22.761719 -25.445312 L 22.1875 -25.445312 C 21.867188 -20.078125 20.011719 -20.011719 16.113281 -20.011719 L 9.335938 -20.011719 L 9.335938 -35.933594 L 17.328125 -35.933594 C 24.296875 -35.933594 25.832031 -35.550781 27.046875 -31.519531 L 28.515625 -26.535156 L 29.089844 -26.660156 L 27.558594 -36.699219 L 2.175781 -36.699219 L 2.175781 -36.1875 L 5.882812 -35.933594 L 5.882812 -0.765625 L 2.175781 -0.511719 L 2.175781 0 L 30.5 0 L 32.03125 -10.101562 L 31.457031 -10.167969 Z M 29.988281 -5.179688 "/></g></g></g><g fill="rgb(28.62854%, 27.449036%, 20.779419%)" fill-opacity="1"><g transform="translate(179.972197, 397.172813)"><g><path d="M 27.367188 -5.179688 C 25.765625 -1.277344 25.0625 -0.765625 18.09375 -0.765625 L 9.335938 -0.765625 L 9.335938 -35.933594 L 13.105469 -36.1875 L 13.105469 -36.699219 L 2.175781 -36.699219 L 2.175781 -36.1875 L 5.882812 -35.933594 L 5.882812 -0.765625 L 2.175781 -0.511719 L 2.175781 0 L 27.683594 0 L 30.113281 -10.359375 L 29.539062 -10.484375 Z M 27.367188 -5.179688 "/></g></g></g><g fill="rgb(28.62854%, 27.449036%, 20.779419%)" fill-opacity="1"><g transform="translate(219.358267, 397.172813)"><g><path d="M 29.988281 -5.179688 C 28.773438 -1.152344 27.238281 -0.765625 20.269531 -0.765625 L 9.335938 -0.765625 L 9.335938 -19.246094 L 16.113281 -19.246094 C 20.011719 -19.246094 21.867188 -19.179688 22.1875 -13.808594 L 22.761719 -13.808594 L 22.761719 -25.445312 L 22.1875 -25.445312 C 21.867188 -20.078125 20.011719 -20.011719 16.113281 -20.011719 L 9.335938 -20.011719 L 9.335938 -35.933594 L 17.328125 -35.933594 C 24.296875 -35.933594 25.832031 -35.550781 27.046875 -31.519531 L 28.515625 -26.535156 L 29.089844 -26.660156 L 27.558594 -36.699219 L 2.175781 -36.699219 L 2.175781 -36.1875 L 5.882812 -35.933594 L 5.882812 -0.765625 L 2.175781 -0.511719 L 2.175781 0 L 30.5 0 L 32.03125 -10.101562 L 31.457031 -10.167969 Z M 29.988281 -5.179688 "/></g></g></g><g fill="rgb(28.62854%, 27.449036%, 20.779419%)" fill-opacity="1"><g transform="translate(261.81334, 397.172813)"><g><path d="M 4.601562 -1.152344 C 7.417969 -0.0625 10.484375 0.640625 13.554688 0.640625 C 19.882812 0.640625 26.789062 -3.132812 26.789062 -9.910156 C 26.789062 -15.730469 23.082031 -18.09375 16.75 -20.585938 L 12.019531 -22.441406 C 7.863281 -24.105469 6.136719 -25.832031 6.136719 -29.730469 C 6.136719 -34.144531 9.207031 -36.570312 14.257812 -36.570312 C 18.796875 -36.570312 21.484375 -34.527344 22.953125 -30.433594 L 24.679688 -25.765625 L 25.253906 -25.894531 L 23.273438 -35.550781 C 20.78125 -36.570312 17.710938 -37.339844 14.320312 -37.339844 C 7.863281 -37.339844 3.582031 -33.183594 3.582031 -28.515625 C 3.582031 -23.976562 6.136719 -20.90625 10.933594 -19.054688 L 15.535156 -17.261719 C 22.378906 -14.578125 23.976562 -12.210938 23.976562 -8.566406 C 23.976562 -4.21875 19.949219 -0.128906 13.617188 -0.128906 C 9.078125 -0.128906 6.394531 -2.175781 4.921875 -6.265625 L 3.195312 -10.933594 L 2.621094 -10.804688 Z M 4.601562 -1.152344 "/></g></g></g><g fill="rgb(28.62854%, 27.449036%, 20.779419%)" fill-opacity="1"><g transform="translate(299.600962, 397.172813)"><g/></g></g><g fill="rgb(28.62854%, 27.449036%, 20.779419%)" fill-opacity="1"><g transform="translate(320.892739, 397.172813)"><g><path d="M 44.054688 -36.1875 L 44.054688 -36.699219 L 36.636719 -36.699219 L 23.65625 -5.050781 L 9.847656 -36.699219 L 2.175781 -36.699219 L 2.175781 -36.1875 L 5.882812 -35.933594 L 5.882812 -0.765625 L 2.175781 -0.511719 L 2.175781 0 L 10.484375 0 L 10.484375 -0.511719 L 6.839844 -0.765625 L 6.839844 -34.847656 L 21.035156 -2.367188 L 23.59375 -2.367188 L 36.957031 -34.972656 L 36.957031 -0.765625 L 33.246094 -0.511719 L 33.246094 0 L 44.054688 0 L 44.054688 -0.511719 L 40.410156 -0.765625 L 40.410156 -35.933594 Z M 44.054688 -36.1875 "/></g></g></g><g fill="rgb(28.62854%, 27.449036%, 20.779419%)" fill-opacity="1"><g transform="translate(375.623808, 397.172813)"><g><path d="M 31.203125 -0.765625 L 18.667969 -36.699219 L 16.175781 -36.699219 L 3.453125 -0.765625 L 0 -0.511719 L 0 0 L 8.183594 0 L 8.183594 -0.511719 L 4.476562 -0.765625 L 9.398438 -14.707031 L 22.761719 -14.707031 L 27.621094 -0.765625 L 24.550781 -0.511719 L 24.550781 0 L 34.207031 0 L 34.207031 -0.511719 Z M 10.421875 -17.582031 L 16.113281 -33.695312 L 21.738281 -17.582031 Z M 10.421875 -17.582031 "/></g></g></g><g fill="rgb(28.62854%, 27.449036%, 20.779419%)" fill-opacity="1"><g transform="translate(418.334622, 397.172813)"><g><path d="M 6.328125 -18.351562 C 6.328125 -30.433594 12.851562 -36.570312 22.3125 -36.570312 C 26.917969 -36.570312 30.5 -35.292969 32.222656 -30.5 L 33.949219 -25.765625 L 34.527344 -25.765625 L 32.542969 -35.550781 C 29.730469 -36.636719 25.640625 -37.339844 22.25 -37.339844 C 11.316406 -37.339844 2.558594 -29.859375 2.558594 -18.351562 C 2.558594 -6.90625 11.316406 0.640625 21.738281 0.640625 C 26.535156 0.640625 30.371094 -0.382812 33.246094 -1.46875 L 33.246094 -17.328125 L 36.957031 -17.582031 L 36.957031 -18.09375 L 26.085938 -18.09375 L 26.085938 -17.582031 L 29.792969 -17.328125 L 29.792969 -1.855469 C 27.875 -0.703125 24.742188 -0.128906 21.738281 -0.128906 C 12.851562 -0.128906 6.328125 -6.328125 6.328125 -18.351562 Z M 6.328125 -18.351562 "/></g></g></g><g fill="rgb(28.62854%, 27.449036%, 20.779419%)" fill-opacity="1"><g transform="translate(466.352243, 397.172813)"><g><path d="M 31.203125 -0.765625 L 18.667969 -36.699219 L 16.175781 -36.699219 L 3.453125 -0.765625 L 0 -0.511719 L 0 0 L 8.183594 0 L 8.183594 -0.511719 L 4.476562 -0.765625 L 9.398438 -14.707031 L 22.761719 -14.707031 L 27.621094 -0.765625 L 24.550781 -0.511719 L 24.550781 0 L 34.207031 0 L 34.207031 -0.511719 Z M 10.421875 -17.582031 L 16.113281 -33.695312 L 21.738281 -17.582031 Z M 10.421875 -17.582031 "/></g></g></g><g fill="rgb(28.62854%, 27.449036%, 20.779419%)" fill-opacity="1"><g transform="translate(509.063057, 397.172813)"><g><path d="M 27.367188 -5.179688 C 25.765625 -1.277344 25.0625 -0.765625 18.09375 -0.765625 L 9.335938 -0.765625 L 9.335938 -35.933594 L 13.105469 -36.1875 L 13.105469 -36.699219 L 2.175781 -36.699219 L 2.175781 -36.1875 L 5.882812 -35.933594 L 5.882812 -0.765625 L 2.175781 -0.511719 L 2.175781 0 L 27.683594 0 L 30.113281 -10.359375 L 29.539062 -10.484375 Z M 27.367188 -5.179688 "/></g></g></g><g fill="rgb(28.62854%, 27.449036%, 20.779419%)" fill-opacity="1"><g transform="translate(548.449133, 397.172813)"><g><path d="M 31.074219 -35.933594 L 31.074219 -20.078125 L 9.335938 -20.078125 L 9.335938 -35.933594 L 13.042969 -36.1875 L 13.042969 -36.699219 L 2.175781 -36.699219 L 2.175781 -36.1875 L 5.882812 -35.933594 L 5.882812 -0.765625 L 2.175781 -0.511719 L 2.175781 0 L 13.042969 0 L 13.042969 -0.511719 L 9.335938 -0.765625 L 9.335938 -19.179688 L 31.074219 -19.179688 L 31.074219 -0.765625 L 27.429688 -0.511719 L 27.429688 0 L 38.296875 0 L 38.296875 -0.511719 L 34.527344 -0.765625 L 34.527344 -35.933594 L 38.296875 -36.1875 L 38.296875 -36.699219 L 27.429688 -36.699219 L 27.429688 -36.1875 Z M 31.074219 -35.933594 "/></g></g></g><g fill="rgb(28.62854%, 27.449036%, 20.779419%)" fill-opacity="1"><g transform="translate(597.425815, 397.172813)"><g><path d="M 13.234375 -44.179688 C 16.238281 -44.179688 18.09375 -40.089844 21.546875 -40.089844 C 24.9375 -40.089844 25.574219 -42.710938 25.574219 -46.609375 L 25.0625 -46.609375 C 24.9375 -43.988281 23.914062 -42.453125 22.058594 -42.453125 C 19.375 -42.453125 16.558594 -46.546875 13.617188 -46.546875 C 10.230469 -46.546875 9.589844 -43.925781 9.589844 -40.023438 L 10.101562 -40.023438 C 10.230469 -42.644531 11.253906 -44.179688 13.234375 -44.179688 Z M 31.203125 -0.765625 L 18.667969 -36.699219 L 16.175781 -36.699219 L 3.453125 -0.765625 L 0 -0.511719 L 0 0 L 8.183594 0 L 8.183594 -0.511719 L 4.476562 -0.765625 L 9.398438 -14.707031 L 22.761719 -14.707031 L 27.621094 -0.765625 L 24.550781 -0.511719 L 24.550781 0 L 34.207031 0 L 34.207031 -0.511719 Z M 10.421875 -17.582031 L 16.113281 -33.695312 L 21.738281 -17.582031 Z M 10.421875 -17.582031 "/></g></g></g><g fill="rgb(28.62854%, 27.449036%, 20.779419%)" fill-opacity="1"><g transform="translate(640.136628, 397.172813)"><g><path d="M 29.988281 -5.179688 C 28.773438 -1.152344 27.238281 -0.765625 20.269531 -0.765625 L 9.335938 -0.765625 L 9.335938 -19.246094 L 16.113281 -19.246094 C 20.011719 -19.246094 21.867188 -19.179688 22.1875 -13.808594 L 22.761719 -13.808594 L 22.761719 -25.445312 L 22.1875 -25.445312 C 21.867188 -20.078125 20.011719 -20.011719 16.113281 -20.011719 L 9.335938 -20.011719 L 9.335938 -35.933594 L 17.328125 -35.933594 C 24.296875 -35.933594 25.832031 -35.550781 27.046875 -31.519531 L 28.515625 -26.535156 L 29.089844 -26.660156 L 27.558594 -36.699219 L 2.175781 -36.699219 L 2.175781 -36.1875 L 5.882812 -35.933594 L 5.882812 -0.765625 L 2.175781 -0.511719 L 2.175781 0 L 30.5 0 L 32.03125 -10.101562 L 31.457031 -10.167969 Z M 29.988281 -5.179688 "/></g></g></g><g fill="rgb(28.62854%, 27.449036%, 20.779419%)" fill-opacity="1"><g transform="translate(682.591689, 397.172813)"><g><path d="M 4.601562 -1.152344 C 7.417969 -0.0625 10.484375 0.640625 13.554688 0.640625 C 19.882812 0.640625 26.789062 -3.132812 26.789062 -9.910156 C 26.789062 -15.730469 23.082031 -18.09375 16.75 -20.585938 L 12.019531 -22.441406 C 7.863281 -24.105469 6.136719 -25.832031 6.136719 -29.730469 C 6.136719 -34.144531 9.207031 -36.570312 14.257812 -36.570312 C 18.796875 -36.570312 21.484375 -34.527344 22.953125 -30.433594 L 24.679688 -25.765625 L 25.253906 -25.894531 L 23.273438 -35.550781 C 20.78125 -36.570312 17.710938 -37.339844 14.320312 -37.339844 C 7.863281 -37.339844 3.582031 -33.183594 3.582031 -28.515625 C 3.582031 -23.976562 6.136719 -20.90625 10.933594 -19.054688 L 15.535156 -17.261719 C 22.378906 -14.578125 23.976562 -12.210938 23.976562 -8.566406 C 23.976562 -4.21875 19.949219 -0.128906 13.617188 -0.128906 C 9.078125 -0.128906 6.394531 -2.175781 4.921875 -6.265625 L 3.195312 -10.933594 L 2.621094 -10.804688 Z M 4.601562 -1.152344 "/></g></g></g><g fill="rgb(28.62854%, 27.449036%, 20.779419%)" fill-opacity="1"><g transform="translate(276.55455, 461.307645)"><g><path d="M 0.425781 0 L 4.609375 0 L 4.609375 -0.359375 C 2.867188 -0.359375 2.78125 -0.722656 3.292969 -1.890625 L 5.289062 -6.648438 L 10.664062 -6.648438 L 12.660156 -1.890625 C 13.148438 -0.722656 13.0625 -0.359375 11.320312 -0.359375 L 11.320312 0 L 16.292969 0 L 16.292969 -0.359375 C 15.273438 -0.359375 14.761719 -0.722656 14.273438 -1.890625 L 9.15625 -14.019531 L 5.796875 -14.019531 L 5.796875 -13.65625 C 7.117188 -13.65625 7.265625 -13.359375 6.882812 -12.382812 L 2.441406 -1.890625 C 1.953125 -0.722656 1.445312 -0.359375 0.425781 -0.359375 Z M 5.628906 -7.414062 L 7.984375 -13.019531 L 10.324219 -7.414062 Z M 5.628906 -7.414062 "/></g></g></g><g fill="rgb(28.62854%, 27.449036%, 20.779419%)" fill-opacity="1"><g transform="translate(308.496929, 461.307645)"><g><path d="M 0.847656 0 L 6.394531 0 C 8.773438 0 13.210938 -0.828125 13.210938 -7.007812 C 13.210938 -13.167969 8.773438 -14.019531 6.394531 -14.019531 L 0.847656 -14.019531 L 0.847656 -13.65625 C 1.71875 -13.65625 1.910156 -13.234375 1.910156 -11.957031 L 1.910156 -2.058594 C 1.910156 -0.785156 1.71875 -0.359375 0.847656 -0.359375 Z M 3.398438 -0.785156 L 3.398438 -13.234375 L 6.097656 -13.234375 C 9.644531 -13.234375 11.722656 -11.449219 11.722656 -7.007812 C 11.722656 -2.570312 9.644531 -0.785156 6.097656 -0.785156 Z M 3.398438 -0.785156 "/></g></g></g><g fill="rgb(28.62854%, 27.449036%, 20.779419%)" fill-opacity="1"><g transform="translate(337.785022, 461.307645)"><g><path d="M 7.347656 0 L 8.941406 0 L 14.0625 -12.128906 C 14.550781 -13.296875 15.058594 -13.65625 16.078125 -13.65625 L 16.078125 -14.019531 L 11.894531 -14.019531 L 11.894531 -13.65625 C 13.636719 -13.65625 13.722656 -13.296875 13.210938 -12.128906 L 8.515625 -1 L 3.84375 -12.128906 C 3.355469 -13.296875 3.441406 -13.65625 5.183594 -13.65625 L 5.183594 -14.019531 L 0.210938 -14.019531 L 0.210938 -13.65625 C 1.230469 -13.65625 1.742188 -13.296875 2.230469 -12.128906 Z M 7.347656 0 "/></g></g></g><g fill="rgb(28.62854%, 27.449036%, 20.779419%)" fill-opacity="1"><g transform="translate(369.302719, 461.307645)"><g><path d="M 7.414062 0.210938 C 11.574219 0.210938 13.976562 -2.867188 13.976562 -7.007812 C 13.976562 -11.152344 11.574219 -14.230469 7.414062 -14.230469 C 3.226562 -14.230469 0.847656 -11.152344 0.847656 -7.007812 C 0.847656 -2.867188 3.226562 0.210938 7.414062 0.210938 Z M 7.984375 -0.59375 C 4.695312 -0.339844 2.65625 -2.867188 2.359375 -6.605469 C 2.058594 -10.363281 3.652344 -13.148438 6.839844 -13.421875 C 10.132812 -13.679688 12.148438 -11.152344 12.46875 -7.414062 C 12.785156 -3.652344 11.152344 -0.871094 7.984375 -0.59375 Z M 7.984375 -0.59375 "/></g></g></g><g fill="rgb(28.62854%, 27.449036%, 20.779419%)" fill-opacity="1"><g transform="translate(399.355246, 461.307645)"><g><path d="M 7.796875 0.210938 C 9.941406 0.210938 11.34375 -0.234375 13.105469 -1.550781 L 13.105469 -4.523438 C 13.105469 -5.796875 13.359375 -6.179688 14.613281 -6.03125 L 14.632812 -6.371094 L 8.558594 -7.117188 L 8.515625 -6.753906 C 11.042969 -6.414062 11.617188 -5.945312 11.617188 -4.652344 L 11.617188 -1.699219 C 10.40625 -1 9.558594 -0.574219 7.796875 -0.574219 C 4.949219 -0.574219 2.335938 -2.65625 2.335938 -7.007812 C 2.335938 -11.195312 4.695312 -13.445312 7.796875 -13.445312 C 10.535156 -13.445312 11.9375 -11.683594 11.722656 -9.515625 L 13.210938 -9.089844 C 13.316406 -12.0625 11.660156 -14.230469 7.796875 -14.230469 C 3.460938 -14.230469 0.847656 -11.195312 0.847656 -7.007812 C 0.847656 -2.65625 3.398438 0.210938 7.796875 0.210938 Z M 7.796875 0.210938 "/></g></g></g><g fill="rgb(28.62854%, 27.449036%, 20.779419%)" fill-opacity="1"><g transform="translate(429.641347, 461.307645)"><g><path d="M 0.425781 0 L 4.609375 0 L 4.609375 -0.359375 C 2.867188 -0.359375 2.78125 -0.722656 3.292969 -1.890625 L 5.289062 -6.648438 L 10.664062 -6.648438 L 12.660156 -1.890625 C 13.148438 -0.722656 13.0625 -0.359375 11.320312 -0.359375 L 11.320312 0 L 16.292969 0 L 16.292969 -0.359375 C 15.273438 -0.359375 14.761719 -0.722656 14.273438 -1.890625 L 9.15625 -14.019531 L 5.796875 -14.019531 L 5.796875 -13.65625 C 7.117188 -13.65625 7.265625 -13.359375 6.882812 -12.382812 L 2.441406 -1.890625 C 1.953125 -0.722656 1.445312 -0.359375 0.425781 -0.359375 Z M 5.628906 -7.414062 L 7.984375 -13.019531 L 10.324219 -7.414062 Z M 5.628906 -7.414062 "/></g></g></g><g fill="rgb(28.62854%, 27.449036%, 20.779419%)" fill-opacity="1"><g transform="translate(461.583728, 461.307645)"><g><path d="M 0.847656 0 L 6.394531 0 C 8.773438 0 13.210938 -0.828125 13.210938 -7.007812 C 13.210938 -13.167969 8.773438 -14.019531 6.394531 -14.019531 L 0.847656 -14.019531 L 0.847656 -13.65625 C 1.71875 -13.65625 1.910156 -13.234375 1.910156 -11.957031 L 1.910156 -2.058594 C 1.910156 -0.785156 1.71875 -0.359375 0.847656 -0.359375 Z M 3.398438 -0.785156 L 3.398438 -13.234375 L 6.097656 -13.234375 C 9.644531 -13.234375 11.722656 -11.449219 11.722656 -7.007812 C 11.722656 -2.570312 9.644531 -0.785156 6.097656 -0.785156 Z M 3.398438 -0.785156 "/></g></g></g><g fill="rgb(28.62854%, 27.449036%, 20.779419%)" fill-opacity="1"><g transform="translate(490.871825, 461.307645)"><g><path d="M 7.414062 0.210938 C 11.574219 0.210938 13.976562 -2.867188 13.976562 -7.007812 C 13.976562 -11.152344 11.574219 -14.230469 7.414062 -14.230469 C 3.226562 -14.230469 0.847656 -11.152344 0.847656 -7.007812 C 0.847656 -2.867188 3.226562 0.210938 7.414062 0.210938 Z M 7.984375 -0.59375 C 4.695312 -0.339844 2.65625 -2.867188 2.359375 -6.605469 C 2.058594 -10.363281 3.652344 -13.148438 6.839844 -13.421875 C 10.132812 -13.679688 12.148438 -11.152344 12.46875 -7.414062 C 12.785156 -3.652344 11.152344 -0.871094 7.984375 -0.59375 Z M 7.984375 -0.59375 "/></g></g></g><g fill="rgb(28.62854%, 27.449036%, 20.779419%)" fill-opacity="1"><g transform="translate(520.924352, 461.307645)"><g><path d="M 6.753906 0.210938 C 9.515625 0.210938 11.851562 -0.765625 11.851562 -3.484375 C 11.851562 -6.265625 9.558594 -6.859375 6.542969 -7.964844 C 4.96875 -8.539062 2.847656 -9.132812 2.847656 -10.980469 C 2.847656 -12.59375 4.246094 -13.445312 6.371094 -13.445312 C 8.898438 -13.445312 10.640625 -12.171875 9.621094 -9.644531 L 11.109375 -9.21875 C 12.214844 -12.828125 9.304688 -14.230469 6.371094 -14.230469 C 3.546875 -14.230469 1.359375 -13.148438 1.359375 -10.789062 C 1.359375 -8.242188 3.800781 -7.5625 6.351562 -6.5625 C 8.539062 -5.714844 10.363281 -5.417969 10.363281 -3.292969 C 10.363281 -1.445312 9.046875 -0.574219 6.796875 -0.574219 C 4.121094 -0.574219 1.445312 -1.65625 2.546875 -5.203125 L 1.0625 -5.628906 C -0.0429688 -1.019531 3.503906 0.210938 6.753906 0.210938 Z M 6.753906 0.210938 "/></g></g></g><g fill="rgb(28.62854%, 27.449036%, 20.779419%)" fill-opacity="1"><g transform="translate(548.640474, 461.307645)"><g/></g></g></svg>